solid EgyptianTangram
    facet normal 0.000000e+00 1.000000e+00 0.000000e+00
        outer loop
            vertex 3.913119e+01 1.285739e+02 0.000000e+00
            vertex 3.913119e+01 1.285739e+02 5.000000e+00
            vertex 1.285739e+02 1.285739e+02 0.000000e+00
        endloop
    endfacet
    facet normal -0.000000e+00 1.000000e+00 0.000000e+00
        outer loop
            vertex 3.913119e+01 1.285739e+02 5.000000e+00
            vertex 1.285739e+02 1.285739e+02 5.000000e+00
            vertex 1.285739e+02 1.285739e+02 0.000000e+00
        endloop
    endfacet
    facet normal 1.000000e+00 0.000000e+00 -0.000000e+00
        outer loop
            vertex 1.285739e+02 1.285739e+02 0.000000e+00
            vertex 1.285739e+02 1.285739e+02 5.000000e+00
            vertex 1.285739e+02 6.149187e+01 0.000000e+00
        endloop
    endfacet
    facet normal 1.000000e+00 0.000000e+00 0.000000e+00
        outer loop
            vertex 1.285739e+02 1.285739e+02 5.000000e+00
            vertex 1.285739e+02 6.149187e+01 5.000000e+00
            vertex 1.285739e+02 6.149187e+01 0.000000e+00
        endloop
    endfacet
    facet normal -6.000000e-01 -8.000000e-01 0.000000e+00
        outer loop
            vertex 1.285739e+02 6.149187e+01 0.000000e+00
            vertex 1.285739e+02 6.149187e+01 5.000000e+00
            vertex 3.913119e+01 1.285739e+02 0.000000e+00
        endloop
    endfacet
    facet normal -6.000000e-01 -8.000000e-01 0.000000e+00
        outer loop
            vertex 1.285739e+02 6.149187e+01 5.000000e+00
            vertex 3.913119e+01 1.285739e+02 5.000000e+00
            vertex 3.913119e+01 1.285739e+02 0.000000e+00
        endloop
    endfacet
    facet normal -0.000000e+00 -0.000000e+00 -1.000000e+00
        outer loop
            vertex 1.285739e+02 1.285739e+02 0.000000e+00
            vertex 1.285739e+02 6.149187e+01 0.000000e+00
            vertex 3.913119e+01 1.285739e+02 0.000000e+00
        endloop
    endfacet
    facet normal -0.000000e+00 0.000000e+00 1.000000e+00
        outer loop
            vertex 3.913119e+01 1.285739e+02 5.000000e+00
            vertex 1.285739e+02 6.149187e+01 5.000000e+00
            vertex 1.285739e+02 1.285739e+02 5.000000e+00
        endloop
    endfacet
    facet normal 0.000000e+00 -1.000000e+00 0.000000e+00
        outer loop
            vertex 1.000000e+02 7.043614e+01 0.000000e+00
            vertex 1.000000e+02 7.043614e+01 5.000000e+00
            vertex 0.000000e+00 7.043614e+01 0.000000e+00
        endloop
    endfacet
    facet normal -0.000000e+00 -1.000000e+00 0.000000e+00
        outer loop
            vertex 1.000000e+02 7.043614e+01 5.000000e+00
            vertex 0.000000e+00 7.043614e+01 5.000000e+00
            vertex 0.000000e+00 7.043614e+01 0.000000e+00
        endloop
    endfacet
    facet normal -1.000000e+00 0.000000e+00 0.000000e+00
        outer loop
            vertex 0.000000e+00 7.043614e+01 0.000000e+00
            vertex 0.000000e+00 7.043614e+01 5.000000e+00
            vertex 0.000000e+00 1.204361e+02 0.000000e+00
        endloop
    endfacet
    facet normal -1.000000e+00 0.000000e+00 0.000000e+00
        outer loop
            vertex 0.000000e+00 7.043614e+01 5.000000e+00
            vertex 0.000000e+00 1.204361e+02 5.000000e+00
            vertex 0.000000e+00 1.204361e+02 0.000000e+00
        endloop
    endfacet
    facet normal 4.472136e-01 8.944272e-01 -0.000000e+00
        outer loop
            vertex 0.000000e+00 1.204361e+02 0.000000e+00
            vertex 0.000000e+00 1.204361e+02 5.000000e+00
            vertex 1.000000e+02 7.043614e+01 0.000000e+00
        endloop
    endfacet
    facet normal 4.472136e-01 8.944272e-01 0.000000e+00
        outer loop
            vertex 0.000000e+00 1.204361e+02 5.000000e+00
            vertex 1.000000e+02 7.043614e+01 5.000000e+00
            vertex 1.000000e+02 7.043614e+01 0.000000e+00
        endloop
    endfacet
    facet normal 0.000000e+00 0.000000e+00 -1.000000e+00
        outer loop
            vertex 0.000000e+00 7.043614e+01 0.000000e+00
            vertex 0.000000e+00 1.204361e+02 0.000000e+00
            vertex 1.000000e+02 7.043614e+01 0.000000e+00
        endloop
    endfacet
    facet normal 0.000000e+00 0.000000e+00 1.000000e+00
        outer loop
            vertex 1.000000e+02 7.043614e+01 5.000000e+00
            vertex 0.000000e+00 1.204361e+02 5.000000e+00
            vertex 0.000000e+00 7.043614e+01 5.000000e+00
        endloop
    endfacet
    facet normal -1.000000e+00 0.000000e+00 0.000000e+00
        outer loop
            vertex 0.000000e+00 1.118034e+01 0.000000e+00
            vertex 0.000000e+00 1.118034e+01 5.000000e+00
            vertex 0.000000e+00 5.590170e+01 0.000000e+00
        endloop
    endfacet
    facet normal -1.000000e+00 0.000000e+00 0.000000e+00
        outer loop
            vertex 0.000000e+00 1.118034e+01 5.000000e+00
            vertex 0.000000e+00 5.590170e+01 5.000000e+00
            vertex 0.000000e+00 5.590170e+01 0.000000e+00
        endloop
    endfacet
    facet normal 0.000000e+00 1.000000e+00 0.000000e+00
        outer loop
            vertex 0.000000e+00 5.590170e+01 0.000000e+00
            vertex 0.000000e+00 5.590170e+01 5.000000e+00
            vertex 8.944272e+01 5.590170e+01 0.000000e+00
        endloop
    endfacet
    facet normal -0.000000e+00 1.000000e+00 0.000000e+00
        outer loop
            vertex 0.000000e+00 5.590170e+01 5.000000e+00
            vertex 8.944272e+01 5.590170e+01 5.000000e+00
            vertex 8.944272e+01 5.590170e+01 0.000000e+00
        endloop
    endfacet
    facet normal 4.472136e-01 -8.944272e-01 0.000000e+00
        outer loop
            vertex 8.944272e+01 5.590170e+01 0.000000e+00
            vertex 8.944272e+01 5.590170e+01 5.000000e+00
            vertex 0.000000e+00 1.118034e+01 0.000000e+00
        endloop
    endfacet
    facet normal 4.472136e-01 -8.944272e-01 0.000000e+00
        outer loop
            vertex 8.944272e+01 5.590170e+01 5.000000e+00
            vertex 0.000000e+00 1.118034e+01 5.000000e+00
            vertex 0.000000e+00 1.118034e+01 0.000000e+00
        endloop
    endfacet
    facet normal 0.000000e+00 0.000000e+00 -1.000000e+00
        outer loop
            vertex 0.000000e+00 5.590170e+01 0.000000e+00
            vertex 8.944272e+01 5.590170e+01 0.000000e+00
            vertex 0.000000e+00 1.118034e+01 0.000000e+00
        endloop
    endfacet
    facet normal 0.000000e+00 0.000000e+00 1.000000e+00
        outer loop
            vertex 0.000000e+00 1.118034e+01 5.000000e+00
            vertex 8.944272e+01 5.590170e+01 5.000000e+00
            vertex 0.000000e+00 5.590170e+01 5.000000e+00
        endloop
    endfacet
    facet normal 0.000000e+00 -1.000000e+00 0.000000e+00
        outer loop
            vertex 5.031153e+01 0.000000e+00 0.000000e+00
            vertex 5.031153e+01 0.000000e+00 5.000000e+00
            vertex 5.590170e+00 0.000000e+00 0.000000e+00
        endloop
    endfacet
    facet normal -0.000000e+00 -1.000000e+00 0.000000e+00
        outer loop
            vertex 5.031153e+01 0.000000e+00 5.000000e+00
            vertex 5.590170e+00 0.000000e+00 5.000000e+00
            vertex 5.590170e+00 0.000000e+00 0.000000e+00
        endloop
    endfacet
    facet normal -4.472136e-01 8.944272e-01 0.000000e+00
        outer loop
            vertex 5.590170e+00 0.000000e+00 0.000000e+00
            vertex 5.590170e+00 0.000000e+00 5.000000e+00
            vertex 5.031153e+01 2.236068e+01 0.000000e+00
        endloop
    endfacet
    facet normal -4.472136e-01 8.944272e-01 0.000000e+00
        outer loop
            vertex 5.590170e+00 0.000000e+00 5.000000e+00
            vertex 5.031153e+01 2.236068e+01 5.000000e+00
            vertex 5.031153e+01 2.236068e+01 0.000000e+00
        endloop
    endfacet
    facet normal 1.000000e+00 0.000000e+00 -0.000000e+00
        outer loop
            vertex 5.031153e+01 2.236068e+01 0.000000e+00
            vertex 5.031153e+01 2.236068e+01 5.000000e+00
            vertex 5.031153e+01 0.000000e+00 0.000000e+00
        endloop
    endfacet
    facet normal 1.000000e+00 0.000000e+00 0.000000e+00
        outer loop
            vertex 5.031153e+01 2.236068e+01 5.000000e+00
            vertex 5.031153e+01 0.000000e+00 5.000000e+00
            vertex 5.031153e+01 0.000000e+00 0.000000e+00
        endloop
    endfacet
    facet normal 0.000000e+00 0.000000e+00 -1.000000e+00
        outer loop
            vertex 5.590170e+00 0.000000e+00 0.000000e+00
            vertex 5.031153e+01 2.236068e+01 0.000000e+00
            vertex 5.031153e+01 0.000000e+00 0.000000e+00
        endloop
    endfacet
    facet normal 0.000000e+00 -0.000000e+00 1.000000e+00
        outer loop
            vertex 5.031153e+01 0.000000e+00 5.000000e+00
            vertex 5.031153e+01 2.236068e+01 5.000000e+00
            vertex 5.590170e+00 0.000000e+00 5.000000e+00
        endloop
    endfacet
    facet normal -1.000000e+00 0.000000e+00 0.000000e+00
        outer loop
            vertex 6.149187e+01 0.000000e+00 0.000000e+00
            vertex 6.149187e+01 0.000000e+00 5.000000e+00
            vertex 6.149187e+01 2.236068e+01 0.000000e+00
        endloop
    endfacet
    facet normal -1.000000e+00 0.000000e+00 0.000000e+00
        outer loop
            vertex 6.149187e+01 0.000000e+00 5.000000e+00
            vertex 6.149187e+01 2.236068e+01 5.000000e+00
            vertex 6.149187e+01 2.236068e+01 0.000000e+00
        endloop
    endfacet
    facet normal -4.472136e-01 8.944272e-01 0.000000e+00
        outer loop
            vertex 6.149187e+01 2.236068e+01 0.000000e+00
            vertex 6.149187e+01 2.236068e+01 5.000000e+00
            vertex 1.062132e+02 4.472136e+01 0.000000e+00
        endloop
    endfacet
    facet normal -4.472136e-01 8.944272e-01 0.000000e+00
        outer loop
            vertex 6.149187e+01 2.236068e+01 5.000000e+00
            vertex 1.062132e+02 4.472136e+01 5.000000e+00
            vertex 1.062132e+02 4.472136e+01 0.000000e+00
        endloop
    endfacet
    facet normal 8.944272e-01 4.472136e-01 -0.000000e+00
        outer loop
            vertex 1.062132e+02 4.472136e+01 0.000000e+00
            vertex 1.062132e+02 4.472136e+01 5.000000e+00
            vertex 1.285739e+02 0.000000e+00 0.000000e+00
        endloop
    endfacet
    facet normal 8.944272e-01 4.472136e-01 0.000000e+00
        outer loop
            vertex 1.062132e+02 4.472136e+01 5.000000e+00
            vertex 1.285739e+02 0.000000e+00 5.000000e+00
            vertex 1.285739e+02 0.000000e+00 0.000000e+00
        endloop
    endfacet
    facet normal 0.000000e+00 -1.000000e+00 0.000000e+00
        outer loop
            vertex 1.285739e+02 0.000000e+00 0.000000e+00
            vertex 1.285739e+02 0.000000e+00 5.000000e+00
            vertex 6.149187e+01 0.000000e+00 0.000000e+00
        endloop
    endfacet
    facet normal -0.000000e+00 -1.000000e+00 0.000000e+00
        outer loop
            vertex 1.285739e+02 0.000000e+00 5.000000e+00
            vertex 6.149187e+01 0.000000e+00 5.000000e+00
            vertex 6.149187e+01 0.000000e+00 0.000000e+00
        endloop
    endfacet
    facet normal 0.000000e+00 0.000000e+00 -1.000000e+00
        outer loop
            vertex 6.149187e+01 2.236068e+01 0.000000e+00
            vertex 1.062132e+02 4.472136e+01 0.000000e+00
            vertex 1.285739e+02 0.000000e+00 0.000000e+00
        endloop
    endfacet
    facet normal 0.000000e+00 0.000000e+00 -1.000000e+00
        outer loop
            vertex 6.149187e+01 2.236068e+01 0.000000e+00
            vertex 1.285739e+02 0.000000e+00 0.000000e+00
            vertex 6.149187e+01 0.000000e+00 0.000000e+00
        endloop
    endfacet
    facet normal 0.000000e+00 0.000000e+00 1.000000e+00
        outer loop
            vertex 1.285739e+02 0.000000e+00 5.000000e+00
            vertex 1.062132e+02 4.472136e+01 5.000000e+00
            vertex 6.149187e+01 2.236068e+01 5.000000e+00
        endloop
    endfacet
    facet normal 0.000000e+00 0.000000e+00 1.000000e+00
        outer loop
            vertex 6.149187e+01 0.000000e+00 5.000000e+00
            vertex 1.285739e+02 0.000000e+00 5.000000e+00
            vertex 6.149187e+01 2.236068e+01 5.000000e+00
        endloop
    endfacet
endsolid EgyptianTangram
