solid Egyptian Tangram - T6
    facet normal 0.000000e+00 0.000000e+00 -1.000000e+00
        outer loop
            vertex 4.375000e+01 1.437500e+02 0.000000e+00
            vertex 1.437500e+02 1.437500e+02 0.000000e+00
            vertex 1.437500e+02 6.875000e+01 0.000000e+00
        endloop
    endfacet
    facet normal 0.000000e+00 1.000000e+00 0.000000e+00
        outer loop
            vertex 4.375000e+01 1.437500e+02 0.000000e+00
            vertex 4.375000e+01 1.437500e+02 5.000000e+00
            vertex 1.437500e+02 1.437500e+02 0.000000e+00
        endloop
    endfacet
    facet normal -0.000000e+00 1.000000e+00 0.000000e+00
        outer loop
            vertex 4.375000e+01 1.437500e+02 5.000000e+00
            vertex 1.437500e+02 1.437500e+02 5.000000e+00
            vertex 1.437500e+02 1.437500e+02 0.000000e+00
        endloop
    endfacet
    facet normal -6.000000e-01 -8.000000e-01 0.000000e+00
        outer loop
            vertex 1.437500e+02 6.875000e+01 0.000000e+00
            vertex 1.437500e+02 6.875000e+01 5.000000e+00
            vertex 4.375000e+01 1.437500e+02 0.000000e+00
        endloop
    endfacet
    facet normal -6.000000e-01 -8.000000e-01 0.000000e+00
        outer loop
            vertex 1.437500e+02 6.875000e+01 5.000000e+00
            vertex 4.375000e+01 1.437500e+02 5.000000e+00
            vertex 4.375000e+01 1.437500e+02 0.000000e+00
        endloop
    endfacet
    facet normal 1.000000e+00 0.000000e+00 -0.000000e+00
        outer loop
            vertex 1.437500e+02 1.437500e+02 0.000000e+00
            vertex 1.437500e+02 1.437500e+02 5.000000e+00
            vertex 1.437500e+02 6.875000e+01 0.000000e+00
        endloop
    endfacet
    facet normal 1.000000e+00 0.000000e+00 0.000000e+00
        outer loop
            vertex 1.437500e+02 1.437500e+02 5.000000e+00
            vertex 1.437500e+02 6.875000e+01 5.000000e+00
            vertex 1.437500e+02 6.875000e+01 0.000000e+00
        endloop
    endfacet
    facet normal 0.000000e+00 -0.000000e+00 1.000000e+00
        outer loop
            vertex 1.437500e+02 6.875000e+01 5.000000e+00
            vertex 1.437500e+02 1.437500e+02 5.000000e+00
            vertex 4.375000e+01 1.437500e+02 5.000000e+00
        endloop
    endfacet
endsolid Egyptian Tangram - T6
