solid Egyptian Tangram - T1
    facet normal 0.000000e+00 0.000000e+00 -1.000000e+00
        outer loop
            vertex 5.625000e+01 0.000000e+00 0.000000e+00
            vertex 6.250000e+00 0.000000e+00 0.000000e+00
            vertex 5.625000e+01 2.500000e+01 0.000000e+00
        endloop
    endfacet
    facet normal 0.000000e+00 -1.000000e+00 0.000000e+00
        outer loop
            vertex 5.625000e+01 0.000000e+00 0.000000e+00
            vertex 5.625000e+01 0.000000e+00 5.000000e+00
            vertex 6.250000e+00 0.000000e+00 0.000000e+00
        endloop
    endfacet
    facet normal -0.000000e+00 -1.000000e+00 0.000000e+00
        outer loop
            vertex 5.625000e+01 0.000000e+00 5.000000e+00
            vertex 6.250000e+00 0.000000e+00 5.000000e+00
            vertex 6.250000e+00 0.000000e+00 0.000000e+00
        endloop
    endfacet
    facet normal 1.000000e+00 0.000000e+00 -0.000000e+00
        outer loop
            vertex 5.625000e+01 2.500000e+01 0.000000e+00
            vertex 5.625000e+01 2.500000e+01 5.000000e+00
            vertex 5.625000e+01 0.000000e+00 0.000000e+00
        endloop
    endfacet
    facet normal 1.000000e+00 0.000000e+00 0.000000e+00
        outer loop
            vertex 5.625000e+01 2.500000e+01 5.000000e+00
            vertex 5.625000e+01 0.000000e+00 5.000000e+00
            vertex 5.625000e+01 0.000000e+00 0.000000e+00
        endloop
    endfacet
    facet normal -4.472136e-01 8.944272e-01 0.000000e+00
        outer loop
            vertex 6.250000e+00 0.000000e+00 0.000000e+00
            vertex 6.250000e+00 0.000000e+00 5.000000e+00
            vertex 5.625000e+01 2.500000e+01 0.000000e+00
        endloop
    endfacet
    facet normal -4.472136e-01 8.944272e-01 0.000000e+00
        outer loop
            vertex 6.250000e+00 0.000000e+00 5.000000e+00
            vertex 5.625000e+01 2.500000e+01 5.000000e+00
            vertex 5.625000e+01 2.500000e+01 0.000000e+00
        endloop
    endfacet
    facet normal 0.000000e+00 0.000000e+00 1.000000e+00
        outer loop
            vertex 5.625000e+01 2.500000e+01 5.000000e+00
            vertex 6.250000e+00 0.000000e+00 5.000000e+00
            vertex 5.625000e+01 0.000000e+00 5.000000e+00
        endloop
    endfacet
endsolid Egyptian Tangram - T1
