<?xml version="1.0" standalone="no"?>
<!DOCTYPE svg PUBLIC "-//W3C//DTD SVG 20010904//EN"
 "http://www.w3.org/TR/2001/REC-SVG-20010904/DTD/svg10.dtd">
<svg version="1.0" xmlns="http://www.w3.org/2000/svg"
 width="778.000000pt" height="201.000000pt" viewBox="0 0 778.000000 201.000000"
 preserveAspectRatio="xMidYMid meet">

<g transform="translate(0.000000,201.000000) scale(0.100000,-0.100000)"
fill="#000000" stroke="none">
<path d="M0 1005 l0 -1005 3890 0 3890 0 0 1005 0 1005 -3890 0 -3890 0 0
-1005z m1188 414 c47 -24 77 -48 101 -81 l35 -47 51 47 c98 93 191 128 310
119 139 -11 229 -67 282 -175 l28 -57 3 -432 3 -433 -140 0 -139 0 -4 383 c-3
328 -6 387 -20 419 -34 75 -122 98 -210 55 -114 -57 -128 -114 -128 -539 l0
-318 -144 0 -145 0 -3 393 c-3 356 -5 395 -21 425 -36 65 -128 80 -218 35
-106 -55 -119 -111 -119 -541 l0 -312 -145 0 -145 0 2 538 3 537 130 0 130 0
3 -68 3 -68 52 46 c94 86 176 116 300 111 65 -2 88 -8 145 -37z m1791 22 c71
-22 120 -57 160 -112 l28 -38 34 35 c90 94 201 139 319 131 98 -7 159 -29 215
-79 103 -91 114 -156 115 -680 l0 -338 -144 0 -145 0 -3 388 c-3 350 -5 390
-21 420 -39 71 -125 91 -207 50 -114 -59 -129 -124 -130 -555 l0 -303 -140 0
-140 0 -1 278 c0 341 -10 495 -33 539 -34 67 -124 82 -214 37 -107 -53 -122
-122 -122 -560 l0 -294 -140 0 -140 0 0 540 0 541 128 -3 127 -3 3 -68 3 -68
51 46 c117 105 258 139 397 96z m1724 8 c120 -19 218 -74 254 -142 33 -64 36
-101 43 -447 7 -372 6 -361 55 -482 7 -17 -4 -18 -133 -18 l-140 0 -18 53 c-9
28 -18 54 -20 56 -2 2 -20 -10 -41 -26 -102 -78 -175 -104 -294 -104 -217 -1
-352 122 -352 321 0 86 30 155 92 213 59 55 121 79 321 123 85 19 177 42 204
51 l48 15 -4 50 c-9 91 -59 126 -183 127 -84 1 -142 -29 -170 -86 -11 -24 -26
-43 -34 -43 -8 0 -65 10 -128 21 -128 24 -127 23 -89 106 32 67 98 139 157
168 97 49 278 68 432 44z m1174 -3 c139 -30 241 -109 300 -231 18 -38 33 -76
33 -85 0 -12 -29 -20 -127 -38 -71 -12 -133 -22 -139 -22 -6 0 -14 14 -18 32
-8 43 -48 92 -89 112 -70 33 -190 15 -245 -37 -60 -55 -88 -169 -79 -311 10
-155 57 -242 149 -280 78 -33 190 -10 236 48 11 15 28 51 38 79 9 29 18 53 19
55 2 3 268 -39 273 -44 9 -6 -33 -119 -63 -170 -88 -148 -221 -215 -430 -215
-164 0 -257 35 -361 133 -54 51 -104 135 -130 215 -21 67 -29 252 -15 341 30
191 140 335 302 396 93 35 242 44 346 22z m1144 0 c127 -23 217 -82 256 -171
15 -35 18 -87 24 -395 7 -355 12 -411 48 -477 21 -41 16 -43 -127 -43 l-138 0
-18 55 c-9 30 -20 55 -23 55 -3 0 -21 -13 -39 -30 -73 -63 -174 -100 -280
-101 -91 -1 -138 8 -196 37 -199 100 -229 386 -54 519 45 34 142 67 311 104
77 17 161 38 188 47 l47 16 0 48 c0 86 -59 130 -175 130 -95 0 -158 -34 -186
-102 -12 -28 -15 -30 -53 -24 -137 22 -216 40 -216 50 0 24 59 133 94 173 90
103 313 149 537 109z"/>
<path d="M4557 835 c-70 -19 -140 -42 -156 -51 -84 -50 -78 -169 11 -224 70
-43 195 -16 257 56 38 42 51 90 51 182 0 62 -2 72 -17 71 -10 0 -75 -16 -146
-34z"/>
<path d="M6864 835 c-149 -40 -172 -51 -201 -94 -28 -41 -29 -75 -4 -121 55
-104 213 -109 308 -9 44 47 53 77 53 175 0 74 -2 84 -17 83 -10 0 -73 -16
-139 -34z"/>
</g>
</svg>
