<?xml version="1.0" standalone="no"?>
<!DOCTYPE svg PUBLIC "-//W3C//DTD SVG 20010904//EN"
 "http://www.w3.org/TR/2001/REC-SVG-20010904/DTD/svg10.dtd">
<svg version="1.0" xmlns="http://www.w3.org/2000/svg"
 width="202.000000pt" height="779.000000pt" viewBox="0 0 202.000000 779.000000"
 preserveAspectRatio="xMidYMid meet">

<g transform="translate(0.000000,779.000000) scale(0.100000,-0.100000)"
fill="#000000" stroke="none">
<path d="M5 7778 c-3 -7 -4 -1759 -3 -3893 l3 -3880 1005 0 1005 0 0 3890 0
3890 -1003 3 c-797 2 -1004 0 -1007 -10z m1433 -550 l-3 -133 -63 -3 -64 -3
47 -50 c25 -27 60 -80 78 -116 27 -58 31 -79 31 -153 1 -122 -21 -179 -99
-256 l-62 -60 58 -61 c78 -84 103 -149 102 -268 0 -155 -58 -256 -181 -313
l-57 -27 -432 -3 -433 -3 0 145 0 145 388 3 c351 3 390 5 424 21 92 46 90 200
-4 270 -66 48 -83 51 -453 56 l-350 6 -3 141 -3 141 378 6 c227 3 392 10 414
16 57 17 82 52 87 119 7 94 -47 174 -136 203 -25 9 -153 15 -387 18 l-350 6
-3 143 -3 142 541 0 541 0 -3 -132z m2 -1843 l0 -135 -66 0 -67 0 46 -49 c109
-116 141 -266 90 -416 -12 -35 -34 -68 -78 -112 l-62 -62 44 -43 c116 -114
151 -276 93 -431 -28 -75 -71 -121 -148 -159 l-67 -33 -433 -3 -433 -3 3 143
3 143 390 5 c359 5 392 6 421 24 17 10 39 31 48 46 37 64 5 182 -63 227 -65
44 -91 47 -453 50 l-348 4 0 143 0 144 383 4 c408 5 427 7 471 57 24 26 32
107 16 155 -13 41 -52 91 -84 108 -56 30 -144 37 -463 38 l-323 0 0 145 0 145
540 0 540 0 0 -135z m-655 -1679 c114 -53 156 -121 205 -333 18 -76 42 -174
54 -218 20 -76 23 -80 51 -83 46 -6 101 15 121 46 13 19 19 52 22 112 5 117
-10 145 -112 205 -16 9 -16 19 5 138 18 99 26 127 38 127 32 0 137 -58 178
-98 23 -23 51 -59 63 -81 68 -134 77 -390 19 -547 -28 -76 -105 -155 -170
-173 -29 -9 -161 -16 -399 -20 -372 -8 -361 -7 -482 -56 -17 -7 -18 4 -18 137
l0 144 55 18 c30 9 55 21 55 25 0 4 -9 16 -20 26 -31 28 -76 113 -95 179 -26
89 -17 226 19 300 32 65 109 138 169 159 68 25 182 21 242 -7z m315 -1161
c167 -43 286 -153 340 -315 18 -53 22 -88 22 -185 0 -225 -69 -352 -237 -438
-73 -38 -102 -43 -109 -20 -14 48 -46 255 -41 263 3 6 13 10 22 10 33 0 100
49 119 87 25 51 23 146 -4 199 -25 49 -46 68 -107 96 -44 20 -66 23 -185 23
-106 0 -146 -4 -188 -18 -102 -36 -151 -104 -152 -211 0 -99 50 -160 153 -188
26 -6 47 -15 47 -18 0 -17 -48 -272 -52 -275 -7 -8 -114 31 -169 62 -99 53
-183 171 -208 291 -25 119 -7 302 38 391 71 139 209 234 380 261 79 13 255 5
331 -15z m-340 -1131 c37 -11 68 -30 106 -66 65 -62 91 -124 139 -338 19 -84
41 -174 50 -201 l17 -50 46 7 c93 13 122 55 122 176 0 105 -18 136 -115 193
-15 9 -15 18 5 130 13 66 26 124 31 129 15 17 152 -60 201 -112 57 -61 85
-135 100 -263 30 -267 -49 -472 -201 -520 -22 -8 -169 -15 -391 -19 -331 -7
-359 -8 -415 -29 -33 -12 -68 -25 -78 -28 -16 -5 -17 4 -15 137 l3 143 47 16
c27 9 48 21 48 26 1 6 -10 24 -23 40 -91 115 -122 288 -76 429 55 167 224 252
399 200z"/>
<path d="M613 3420 c-68 -41 -86 -145 -40 -236 30 -59 53 -82 104 -100 46 -16
193 -19 193 -3 0 15 -48 206 -66 261 -29 90 -115 125 -191 78z"/>
<path d="M625 1121 c-44 -27 -66 -55 -75 -97 -19 -84 36 -200 110 -235 19 -9
74 -20 123 -24 78 -7 87 -6 87 9 0 33 -61 260 -81 297 -33 65 -104 87 -164 50z"/>
</g>
</svg>
