solid T4
    facet normal -1.000000e+00 0.000000e+00 0.000000e+00
        outer loop
            vertex 0.000000e+00 1.118034e+01 0.000000e+00
            vertex 0.000000e+00 1.118034e+01 5.000000e+00
            vertex 0.000000e+00 5.590170e+01 0.000000e+00
        endloop
    endfacet
    facet normal -1.000000e+00 0.000000e+00 0.000000e+00
        outer loop
            vertex 0.000000e+00 1.118034e+01 5.000000e+00
            vertex 0.000000e+00 5.590170e+01 5.000000e+00
            vertex 0.000000e+00 5.590170e+01 0.000000e+00
        endloop
    endfacet
    facet normal 0.000000e+00 1.000000e+00 0.000000e+00
        outer loop
            vertex 0.000000e+00 5.590170e+01 0.000000e+00
            vertex 0.000000e+00 5.590170e+01 5.000000e+00
            vertex 8.944272e+01 5.590170e+01 0.000000e+00
        endloop
    endfacet
    facet normal -0.000000e+00 1.000000e+00 0.000000e+00
        outer loop
            vertex 0.000000e+00 5.590170e+01 5.000000e+00
            vertex 8.944272e+01 5.590170e+01 5.000000e+00
            vertex 8.944272e+01 5.590170e+01 0.000000e+00
        endloop
    endfacet
    facet normal 4.472136e-01 -8.944272e-01 0.000000e+00
        outer loop
            vertex 8.944272e+01 5.590170e+01 0.000000e+00
            vertex 8.944272e+01 5.590170e+01 5.000000e+00
            vertex 0.000000e+00 1.118034e+01 0.000000e+00
        endloop
    endfacet
    facet normal 4.472136e-01 -8.944272e-01 0.000000e+00
        outer loop
            vertex 8.944272e+01 5.590170e+01 5.000000e+00
            vertex 0.000000e+00 1.118034e+01 5.000000e+00
            vertex 0.000000e+00 1.118034e+01 0.000000e+00
        endloop
    endfacet
    facet normal 0.000000e+00 0.000000e+00 -1.000000e+00
        outer loop
            vertex 0.000000e+00 5.590170e+01 0.000000e+00
            vertex 8.944272e+01 5.590170e+01 0.000000e+00
            vertex 0.000000e+00 1.118034e+01 0.000000e+00
        endloop
    endfacet
    facet normal 0.000000e+00 0.000000e+00 1.000000e+00
        outer loop
            vertex 0.000000e+00 1.118034e+01 5.000000e+00
            vertex 8.944272e+01 5.590170e+01 5.000000e+00
            vertex 0.000000e+00 5.590170e+01 5.000000e+00
        endloop
    endfacet
endsolid T4
